<svg xmlns="http://www.w3.org/2000/svg" width="1500" height="980" viewBox="0 0 1500 980">
  <defs>
    <style>
      .bg { fill: #f8fafc; }
      .title { font: 700 24px sans-serif; fill: #111827; }
      .sub { font: 500 15px sans-serif; fill: #475569; }
      .section { font: 700 19px sans-serif; fill: #111827; }
      .note { font: 500 14px sans-serif; fill: #475569; }
      .node { font: 700 13px sans-serif; fill: #111827; }
      .leafText { font: 700 10px sans-serif; fill: #14532d; }
      .root { fill: #fef3c7; stroke: #d97706; stroke-width: 2; }
      .internal { fill: #dbeafe; stroke: #2563eb; stroke-width: 2; }
      .newInternal { fill: #fee2e2; stroke: #dc2626; stroke-width: 2; }
      .leaf { fill: #dcfce7; stroke: #16a34a; stroke-width: 2; }
      .line { stroke: #64748b; stroke-width: 1.6; fill: none; }
      .arrow { stroke: #dc2626; stroke-width: 2.4; fill: none; marker-end: url(#arrow); }
      .next { stroke: #16a34a; stroke-width: 1.6; fill: none; marker-end: url(#greenArrow); stroke-dasharray: 5 4; }
      .divider { stroke: #cbd5e1; stroke-width: 1.5; }
    </style>
    <marker id="arrow" markerWidth="10" markerHeight="8" refX="9" refY="4" orient="auto">
      <path d="M 0 0 L 10 4 L 0 8 z" fill="#dc2626"/>
    </marker>
    <marker id="greenArrow" markerWidth="10" markerHeight="8" refX="9" refY="4" orient="auto">
      <path d="M 0 0 L 10 4 L 0 8 z" fill="#16a34a"/>
    </marker>
  </defs>

  <rect class="bg" width="1500" height="980"/>
  <text class="title" x="40" y="42">k=4 예시: 75 삽입이 leaf split -> internal split -> root split으로 전파되는 전체 구조</text>
  <text class="sub" x="40" y="68">최대 key 수를 4개로 둔 학습용 예시입니다. 삽입 전과 후 모두 leaf level을 같은 깊이로 표시했습니다.</text>
  <line class="divider" x1="40" y1="92" x2="1460" y2="92"/>

  <!-- BEFORE -->
  <text class="section" x="40" y="130">1. 삽입 전: root, C1, 대상 leaf가 모두 가득 찬 상태</text>
  <rect class="root" x="570" y="150" width="360" height="42" rx="6"/>
  <text class="node" x="610" y="176">root [50 | 100 | 150 | 200]</text>

  <rect class="internal" x="80" y="230" width="150" height="38" rx="6"/><text class="node" x="105" y="254">C0 [20 | 35]</text>
  <rect class="internal" x="310" y="230" width="250" height="38" rx="6"/><text class="node" x="338" y="254">C1 [60 | 70 | 80 | 90]</text>
  <rect class="internal" x="650" y="230" width="160" height="38" rx="6"/><text class="node" x="673" y="254">C2 [120 | 135]</text>
  <rect class="internal" x="905" y="230" width="160" height="38" rx="6"/><text class="node" x="928" y="254">C3 [170 | 185]</text>
  <rect class="internal" x="1160" y="230" width="160" height="38" rx="6"/><text class="node" x="1183" y="254">C4 [220 | 235]</text>

  <line class="line" x1="750" y1="192" x2="155" y2="230"/>
  <line class="line" x1="750" y1="192" x2="435" y2="230"/>
  <line class="line" x1="750" y1="192" x2="730" y2="230"/>
  <line class="line" x1="750" y1="192" x2="985" y2="230"/>
  <line class="line" x1="750" y1="192" x2="1240" y2="230"/>

  <!-- before leaves same depth -->
  <rect class="leaf" x="25" y="330" width="72" height="30" rx="5"/><text class="leafText" x="36" y="350">[5|10]</text>
  <rect class="leaf" x="105" y="330" width="76" height="30" rx="5"/><text class="leafText" x="114" y="350">[20|30]</text>
  <rect class="leaf" x="189" y="330" width="76" height="30" rx="5"/><text class="leafText" x="198" y="350">[35|45]</text>
  <rect class="leaf" x="285" y="330" width="76" height="30" rx="5"/><text class="leafText" x="294" y="350">[50|55]</text>
  <rect class="leaf" x="369" y="330" width="76" height="30" rx="5"/><text class="leafText" x="378" y="350">[60|65]</text>
  <rect class="leaf" x="453" y="330" width="110" height="30" rx="5"/><text class="leafText" x="461" y="350">[70|71|72|74]</text>
  <rect class="leaf" x="571" y="330" width="76" height="30" rx="5"/><text class="leafText" x="580" y="350">[80|85]</text>
  <rect class="leaf" x="655" y="330" width="76" height="30" rx="5"/><text class="leafText" x="664" y="350">[90|95]</text>
  <rect class="leaf" x="755" y="330" width="86" height="30" rx="5"/><text class="leafText" x="762" y="350">[100|110]</text>
  <rect class="leaf" x="849" y="330" width="86" height="30" rx="5"/><text class="leafText" x="856" y="350">[120|130]</text>
  <rect class="leaf" x="943" y="330" width="86" height="30" rx="5"/><text class="leafText" x="950" y="350">[135|145]</text>
  <rect class="leaf" x="1047" y="330" width="86" height="30" rx="5"/><text class="leafText" x="1054" y="350">[150|160]</text>
  <rect class="leaf" x="1141" y="330" width="86" height="30" rx="5"/><text class="leafText" x="1148" y="350">[170|180]</text>
  <rect class="leaf" x="1235" y="330" width="86" height="30" rx="5"/><text class="leafText" x="1242" y="350">[185|195]</text>
  <rect class="leaf" x="1329" y="330" width="86" height="30" rx="5"/><text class="leafText" x="1336" y="350">[200|210]</text>
  <rect class="leaf" x="1423" y="330" width="72" height="30" rx="5"/><text class="leafText" x="1430" y="350">[220+]</text>

  <line class="line" x1="155" y1="268" x2="61" y2="330"/><line class="line" x1="155" y1="268" x2="143" y2="330"/><line class="line" x1="155" y1="268" x2="227" y2="330"/>
  <line class="line" x1="435" y1="268" x2="323" y2="330"/><line class="line" x1="435" y1="268" x2="407" y2="330"/><line class="line" x1="435" y1="268" x2="508" y2="330"/><line class="line" x1="435" y1="268" x2="609" y2="330"/><line class="line" x1="435" y1="268" x2="693" y2="330"/>
  <line class="line" x1="730" y1="268" x2="798" y2="330"/><line class="line" x1="730" y1="268" x2="892" y2="330"/><line class="line" x1="730" y1="268" x2="986" y2="330"/>
  <line class="line" x1="985" y1="268" x2="1090" y2="330"/><line class="line" x1="985" y1="268" x2="1184" y2="330"/><line class="line" x1="985" y1="268" x2="1278" y2="330"/>
  <line class="line" x1="1240" y1="268" x2="1372" y2="330"/><line class="line" x1="1240" y1="268" x2="1459" y2="330"/>

  <text class="note" x="770" y="395">75는 C1의 [70|71|72|74] leaf로 내려갑니다. 이 leaf, C1, root가 모두 가득 차 있어서 split이 위로 전파됩니다.</text>
  <path class="arrow" d="M 785 385 C 690 365, 610 365, 525 358"/>

  <line class="divider" x1="40" y1="440" x2="1460" y2="440"/>

  <!-- AFTER -->
  <text class="section" x="40" y="480">2. 75 삽입 후: 새 root가 생기고 모든 leaf depth가 그대로 맞음</text>
  <rect class="root" x="670" y="505" width="160" height="42" rx="6"/><text class="node" x="718" y="531">[100]</text>

  <rect class="internal" x="390" y="585" width="190" height="40" rx="6"/><text class="node" x="430" y="610">[50 | 72]</text>
  <rect class="newInternal" x="920" y="585" width="205" height="40" rx="6"/><text class="node" x="963" y="610">[150 | 200]</text>
  <line class="line" x1="750" y1="547" x2="485" y2="585"/><line class="line" x1="750" y1="547" x2="1022" y2="585"/>

  <rect class="internal" x="80" y="670" width="150" height="36" rx="6"/><text class="node" x="105" y="693">C0 [20 | 35]</text>
  <rect class="internal" x="305" y="670" width="170" height="36" rx="6"/><text class="node" x="338" y="693">C1L [60 | 70]</text>
  <rect class="newInternal" x="535" y="670" width="170" height="36" rx="6"/><text class="node" x="568" y="693">C1R [80 | 90]</text>
  <rect class="internal" x="760" y="670" width="160" height="36" rx="6"/><text class="node" x="783" y="693">C2 [120 | 135]</text>
  <rect class="internal" x="1000" y="670" width="160" height="36" rx="6"/><text class="node" x="1023" y="693">C3 [170 | 185]</text>
  <rect class="internal" x="1240" y="670" width="160" height="36" rx="6"/><text class="node" x="1263" y="693">C4 [220 | 235]</text>
  <line class="line" x1="485" y1="625" x2="155" y2="670"/><line class="line" x1="485" y1="625" x2="390" y2="670"/><line class="line" x1="485" y1="625" x2="620" y2="670"/>
  <line class="line" x1="1022" y1="625" x2="840" y2="670"/><line class="line" x1="1022" y1="625" x2="1080" y2="670"/><line class="line" x1="1022" y1="625" x2="1320" y2="670"/>

  <!-- after leaves same depth -->
  <rect class="leaf" x="25" y="790" width="72" height="30" rx="5"/><text class="leafText" x="36" y="810">[5|10]</text>
  <rect class="leaf" x="105" y="790" width="76" height="30" rx="5"/><text class="leafText" x="114" y="810">[20|30]</text>
  <rect class="leaf" x="189" y="790" width="76" height="30" rx="5"/><text class="leafText" x="198" y="810">[35|45]</text>
  <rect class="leaf" x="285" y="790" width="76" height="30" rx="5"/><text class="leafText" x="294" y="810">[50|55]</text>
  <rect class="leaf" x="369" y="790" width="76" height="30" rx="5"/><text class="leafText" x="378" y="810">[60|65]</text>
  <rect class="leaf" x="453" y="790" width="76" height="30" rx="5"/><text class="leafText" x="462" y="810">[70|71]</text>
  <rect class="leaf" x="545" y="790" width="96" height="30" rx="5"/><text class="leafText" x="556" y="810">[72|74|75]</text>
  <rect class="leaf" x="655" y="790" width="76" height="30" rx="5"/><text class="leafText" x="664" y="810">[80|85]</text>
  <rect class="leaf" x="739" y="790" width="76" height="30" rx="5"/><text class="leafText" x="748" y="810">[90|95]</text>
  <rect class="leaf" x="835" y="790" width="86" height="30" rx="5"/><text class="leafText" x="842" y="810">[100|110]</text>
  <rect class="leaf" x="929" y="790" width="86" height="30" rx="5"/><text class="leafText" x="936" y="810">[120|130]</text>
  <rect class="leaf" x="1023" y="790" width="86" height="30" rx="5"/><text class="leafText" x="1030" y="810">[135|145]</text>
  <rect class="leaf" x="1127" y="790" width="86" height="30" rx="5"/><text class="leafText" x="1134" y="810">[150|160]</text>
  <rect class="leaf" x="1221" y="790" width="86" height="30" rx="5"/><text class="leafText" x="1228" y="810">[170|180]</text>
  <rect class="leaf" x="1315" y="790" width="86" height="30" rx="5"/><text class="leafText" x="1322" y="810">[185|195]</text>
  <rect class="leaf" x="1409" y="790" width="86" height="30" rx="5"/><text class="leafText" x="1416" y="810">[200+]</text>

  <line class="line" x1="155" y1="706" x2="61" y2="790"/><line class="line" x1="155" y1="706" x2="143" y2="790"/><line class="line" x1="155" y1="706" x2="227" y2="790"/>
  <line class="line" x1="390" y1="706" x2="323" y2="790"/><line class="line" x1="390" y1="706" x2="407" y2="790"/><line class="line" x1="390" y1="706" x2="491" y2="790"/>
  <line class="line" x1="620" y1="706" x2="593" y2="790"/><line class="line" x1="620" y1="706" x2="693" y2="790"/><line class="line" x1="620" y1="706" x2="777" y2="790"/>
  <line class="line" x1="840" y1="706" x2="878" y2="790"/><line class="line" x1="840" y1="706" x2="972" y2="790"/><line class="line" x1="840" y1="706" x2="1066" y2="790"/>
  <line class="line" x1="1080" y1="706" x2="1170" y2="790"/><line class="line" x1="1080" y1="706" x2="1264" y2="790"/><line class="line" x1="1080" y1="706" x2="1358" y2="790"/>
  <line class="line" x1="1320" y1="706" x2="1452" y2="790"/>

  <path class="next" d="M 97 805 L 105 805"/><path class="next" d="M 181 805 L 189 805"/><path class="next" d="M 265 805 L 285 805"/>
  <path class="next" d="M 361 805 L 369 805"/><path class="next" d="M 445 805 L 453 805"/><path class="next" d="M 529 805 L 545 805"/>
  <path class="next" d="M 641 805 L 655 805"/><path class="next" d="M 731 805 L 739 805"/><path class="next" d="M 815 805 L 835 805"/>
  <path class="next" d="M 921 805 L 929 805"/><path class="next" d="M 1015 805 L 1023 805"/><path class="next" d="M 1109 805 L 1127 805"/>
  <path class="next" d="M 1213 805 L 1221 805"/><path class="next" d="M 1307 805 L 1315 805"/><path class="next" d="M 1401 805 L 1409 805"/>

  <text class="note" x="40" y="890">변화: [70|71|72|74]에 75를 넣어 [70|71] / [72|74|75]로 leaf split, C1은 C1L/C1R로 split, root는 새 root [100]을 만듭니다.</text>
  <text class="note" x="40" y="915">C0, C2, C3, C4는 원래 있던 child이고, C1L/C1R만 기존 C1이 split되어 생긴 child입니다. 모든 leaf는 같은 깊이에 있습니다.</text>
</svg>
