<svg width="980" height="460" viewBox="0 0 980 460" xmlns="http://www.w3.org/2000/svg" role="img" aria-labelledby="title desc">
  <title id="title">Point Lookup by Data Position</title>
  <desc id="desc">Comparison chart where each category shares one bar slot split into a left B+ Tree half and a right linear scan half.</desc>
  <rect width="980" height="460" fill="#ffffff"/>

  <text x="490" y="36" text-anchor="middle" font-family="Arial, sans-serif" font-size="24" font-weight="700" fill="#111111">
    Point Lookup by Data Position
  </text>
  <text x="490" y="62" text-anchor="middle" font-family="Arial, sans-serif" font-size="14" fill="#374151">
    Each category uses one shared slot: left half is B+ Tree, right half is Linear Scan
  </text>

  <line x1="90" y1="390" x2="930" y2="390" stroke="#111111" stroke-width="2"/>
  <line x1="90" y1="90" x2="90" y2="390" stroke="#111111" stroke-width="2"/>

  <g font-family="Arial, sans-serif" font-size="12" fill="#111111">
    <line x1="85" y1="390" x2="930" y2="390" stroke="#d1d5db" stroke-width="1"/>
    <text x="76" y="394" text-anchor="end">0</text>
    <line x1="85" y1="315" x2="930" y2="315" stroke="#e5e7eb" stroke-width="1"/>
    <text x="76" y="319" text-anchor="end">500</text>
    <line x1="85" y1="240" x2="930" y2="240" stroke="#e5e7eb" stroke-width="1"/>
    <text x="76" y="244" text-anchor="end">1000</text>
    <line x1="85" y1="165" x2="930" y2="165" stroke="#e5e7eb" stroke-width="1"/>
    <text x="76" y="169" text-anchor="end">1500</text>
    <line x1="85" y1="90" x2="930" y2="90" stroke="#e5e7eb" stroke-width="1"/>
    <text x="76" y="94" text-anchor="end">2000</text>
  </g>

  <g font-family="Arial, sans-serif" font-size="13" fill="#111111">
    <rect x="690" y="86" width="18" height="18" fill="#22c55e" stroke="#166534" stroke-width="1.5"/>
    <text x="716" y="100">B+ Tree</text>
    <rect x="800" y="86" width="18" height="18" fill="#ef4444" stroke="#991b1b" stroke-width="1.5"/>
    <text x="826" y="100">Linear Scan</text>
  </g>

  <!-- Front -->
  <g>
    <rect x="170" y="90" width="100" height="300" fill="#f8fafc" stroke="#d1d5db" stroke-width="1.5"/>
    <line x1="220" y1="90" x2="220" y2="390" stroke="#cbd5e1" stroke-width="1.5"/>
    <rect x="170" y="309.75" width="50" height="80.25" fill="#22c55e" stroke="#166534" stroke-width="2"/>
    <rect x="220" y="298.5" width="50" height="91.5" fill="#ef4444" stroke="#991b1b" stroke-width="2"/>
    <text x="195" y="304" text-anchor="middle" font-family="Arial, sans-serif" font-size="12" fill="#111111">535</text>
    <text x="245" y="292" text-anchor="middle" font-family="Arial, sans-serif" font-size="12" fill="#111111">610</text>
    <text x="220" y="416" text-anchor="middle" font-family="Arial, sans-serif" font-size="13" fill="#111111">Front</text>
    <text x="220" y="434" text-anchor="middle" font-family="Arial, sans-serif" font-size="12" fill="#4b5563">id = 1</text>
  </g>

  <!-- Middle -->
  <g>
    <rect x="430" y="90" width="100" height="300" fill="#f8fafc" stroke="#d1d5db" stroke-width="1.5"/>
    <line x1="480" y1="90" x2="480" y2="390" stroke="#cbd5e1" stroke-width="1.5"/>
    <rect x="430" y="309" width="50" height="81" fill="#22c55e" stroke="#166534" stroke-width="2"/>
    <rect x="480" y="208.5" width="50" height="181.5" fill="#ef4444" stroke="#991b1b" stroke-width="2"/>
    <text x="455" y="303" text-anchor="middle" font-family="Arial, sans-serif" font-size="12" fill="#111111">540</text>
    <text x="505" y="202" text-anchor="middle" font-family="Arial, sans-serif" font-size="12" fill="#111111">1210</text>
    <text x="480" y="416" text-anchor="middle" font-family="Arial, sans-serif" font-size="13" fill="#111111">Middle</text>
    <text x="480" y="434" text-anchor="middle" font-family="Arial, sans-serif" font-size="12" fill="#4b5563">id = 500000</text>
  </g>

  <!-- Last -->
  <g>
    <rect x="690" y="90" width="100" height="300" fill="#f8fafc" stroke="#d1d5db" stroke-width="1.5"/>
    <line x1="740" y1="90" x2="740" y2="390" stroke="#cbd5e1" stroke-width="1.5"/>
    <rect x="690" y="307.8" width="50" height="82.2" fill="#22c55e" stroke="#166534" stroke-width="2"/>
    <rect x="740" y="118.5" width="50" height="271.5" fill="#ef4444" stroke="#991b1b" stroke-width="2"/>
    <text x="715" y="302" text-anchor="middle" font-family="Arial, sans-serif" font-size="12" fill="#111111">548</text>
    <text x="765" y="112" text-anchor="middle" font-family="Arial, sans-serif" font-size="12" fill="#111111">1810</text>
    <text x="740" y="416" text-anchor="middle" font-family="Arial, sans-serif" font-size="13" fill="#111111">Last</text>
    <text x="740" y="434" text-anchor="middle" font-family="Arial, sans-serif" font-size="12" fill="#4b5563">id = 1000000</text>
  </g>

  <text x="32" y="240" transform="rotate(-90 32 240)" text-anchor="middle" font-family="Arial, sans-serif" font-size="14" fill="#111111">
    Time (ms)
  </text>
</svg>
